<svg width="512" height="512" viewBox="0 0 512 512" fill="none" xmlns="http://www.w3.org/2000/svg">
<rect width="512" height="512" rx="32" fill="white"/>
<path d="M140.835 179.818L180.962 301.176H182.543L222.594 179.818H253.31L198.955 334H164.474L110.195 179.818H140.835ZM397.309 231.839H369.153C368.35 227.222 366.869 223.132 364.711 219.568C362.553 215.955 359.868 212.893 356.656 210.384C353.444 207.874 349.78 205.992 345.664 204.737C341.599 203.432 337.208 202.78 332.49 202.78C324.108 202.78 316.68 204.888 310.206 209.104C303.731 213.269 298.662 219.393 294.998 227.473C291.334 235.503 289.502 245.315 289.502 256.909C289.502 268.704 291.334 278.641 294.998 286.722C298.712 294.752 303.781 300.825 310.206 304.94C316.68 309.006 324.083 311.038 332.414 311.038C337.032 311.038 341.348 310.436 345.363 309.232C349.429 307.977 353.067 306.145 356.279 303.736C359.542 301.327 362.277 298.366 364.485 294.852C366.744 291.339 368.3 287.324 369.153 282.807L397.309 282.957C396.255 290.285 393.972 297.161 390.458 303.585C386.995 310.009 382.453 315.681 376.832 320.599C371.211 325.468 364.636 329.282 357.108 332.043C349.579 334.753 341.223 336.108 332.038 336.108C318.487 336.108 306.391 332.971 295.751 326.697C285.111 320.424 276.729 311.365 270.606 299.52C264.483 287.675 261.422 273.472 261.422 256.909C261.422 240.296 264.508 226.093 270.681 214.298C276.855 202.454 285.261 193.394 295.902 187.121C306.542 180.847 318.587 177.71 332.038 177.71C340.62 177.71 348.601 178.915 355.978 181.324C363.356 183.733 369.931 187.271 375.703 191.939C381.475 196.556 386.217 202.228 389.931 208.953C393.696 215.628 396.155 223.257 397.309 231.839Z" fill="black"/>
</svg>
